<svg width="21" height="21" viewBox="0 0 21 21" fill="none" xmlns="http://www.w3.org/2000/svg">
<path d="M17.4028 13.351C17.4028 13.5382 17.3473 13.7212 17.2433 13.8769C17.1393 14.0325 16.9915 14.1539 16.8185 14.2255C16.6456 14.2971 16.4552 14.3159 16.2716 14.2794C16.088 14.2428 15.9194 14.1527 15.787 14.0203C15.6546 13.8879 15.5645 13.7193 15.528 13.5357C15.4914 13.3521 15.5102 13.1618 15.5818 12.9888C15.6535 12.8158 15.7748 12.668 15.9304 12.564C16.0861 12.46 16.2691 12.4045 16.4563 12.4045C16.7073 12.4045 16.9481 12.5042 17.1256 12.6817C17.3031 12.8592 17.4028 13.1 17.4028 13.351ZM17.0439 16.4501C16.9053 17.3436 16.452 18.1582 15.7658 18.747C15.0795 19.3358 14.2054 19.66 13.3012 19.6612H11.4082C10.4044 19.6601 9.44195 19.2609 8.73214 18.5511C8.02234 17.8413 7.62311 16.8789 7.62207 15.8751V12.6798C6.40226 12.5261 5.28046 11.9325 4.4672 11.0105C3.65393 10.0885 3.20511 8.90133 3.20496 7.67187V3.88578C3.20496 3.71842 3.27144 3.55792 3.38978 3.43958C3.50812 3.32124 3.66862 3.25476 3.83597 3.25476H5.72902C5.89638 3.25476 6.05688 3.32124 6.17522 3.43958C6.29355 3.55792 6.36004 3.71842 6.36004 3.88578C6.36004 4.05313 6.29355 4.21363 6.17522 4.33197C6.05688 4.45031 5.89638 4.51679 5.72902 4.51679H4.46699V7.67187C4.46694 8.17335 4.56652 8.66983 4.75994 9.1325C4.95336 9.59518 5.23676 10.0148 5.5937 10.3671C5.95063 10.7193 6.37399 10.9971 6.83918 11.1844C7.30438 11.3717 7.80214 11.4647 8.30357 11.458C10.363 11.4312 12.0392 9.70296 12.0392 7.6064V4.51679H10.7771C10.6098 4.51679 10.4493 4.45031 10.331 4.33197C10.2126 4.21363 10.1461 4.05313 10.1461 3.88578C10.1461 3.71842 10.2126 3.55792 10.331 3.43958C10.4493 3.32124 10.6098 3.25476 10.7771 3.25476H12.6702C12.8376 3.25476 12.9981 3.32124 13.1164 3.43958C13.2347 3.55792 13.3012 3.71842 13.3012 3.88578V7.6064C13.3012 10.1967 11.3664 12.3619 8.8841 12.679V15.8751C8.8841 16.5445 9.15003 17.1865 9.62338 17.6599C10.0967 18.1332 10.7387 18.3991 11.4082 18.3991H13.3012C13.8744 18.3982 14.4303 18.2025 14.8777 17.8443C15.3251 17.486 15.6375 16.9863 15.7638 16.4272C15.0017 16.256 14.3302 15.8083 13.8792 15.1705C13.4282 14.5328 13.2298 13.7505 13.3224 12.9749C13.415 12.1994 13.7919 11.4857 14.3803 10.972C14.9687 10.4584 15.7267 10.1812 16.5077 10.1942C17.2887 10.2072 18.0371 10.5094 18.6081 11.0424C19.179 11.5753 19.5321 12.3011 19.5988 13.0793C19.6655 13.8575 19.4412 14.6329 18.9692 15.2552C18.4973 15.8776 17.8113 16.3028 17.0439 16.4485V16.4501ZM18.3493 13.351C18.3493 12.9766 18.2383 12.6106 18.0303 12.2993C17.8223 11.988 17.5266 11.7453 17.1807 11.6021C16.8348 11.4588 16.4542 11.4213 16.087 11.4943C15.7198 11.5674 15.3825 11.7477 15.1177 12.0124C14.853 12.2772 14.6727 12.6145 14.5996 12.9817C14.5266 13.3489 14.5641 13.7295 14.7073 14.0755C14.8506 14.4214 15.0933 14.717 15.4046 14.925C15.7159 15.133 16.0819 15.2441 16.4563 15.2441C16.9584 15.2441 17.4399 15.0446 17.7949 14.6896C18.1499 14.3346 18.3493 13.8531 18.3493 13.351Z" fill="#1E3247"/>
</svg>
